<svg width="465" height="465" viewBox="0 0 465 465" fill="none" xmlns="http://www.w3.org/2000/svg">
<path d="M450.034 284.216C439.441 304.986 423.611 320.561 404.301 331.616C385.191 342.557 362.673 349.072 338.446 351.816C291.775 357.103 238.765 348.397 191.58 330.379C109.26 289.162 42.9036 183.781 84.1748 102.862C125.446 21.9427 246.812 -6.87127 345.522 48.7902C444.231 104.452 491.306 203.297 450.034 284.216Z" fill="#FD7B70"/>
<path d="M439.193 401.905C438.644 410.322 346.255 392.485 334.668 348.612L403.094 327.409C405.084 376.288 439.741 393.488 439.193 401.905Z" fill="#FD7B70"/>
<path d="M251.037 175.171C251.037 189.056 239.571 200.313 225.427 200.313C211.283 200.313 199.817 189.056 199.817 175.171C199.817 161.285 211.283 150.028 225.427 150.028C239.571 150.028 251.037 161.285 251.037 175.171Z" fill="#233C62"/>
<path d="M401.562 180.636C401.562 194.522 390.096 205.779 375.952 205.779C361.807 205.779 350.341 194.522 350.341 180.636C350.341 166.751 361.807 155.494 375.952 155.494C390.096 155.494 401.562 166.751 401.562 180.636Z" fill="#233C62"/>
<path d="M263.595 219.905C264.76 224.004 268.003 229.144 272.986 233.864C277.923 238.539 284.283 242.526 291.314 244.567C298.299 246.593 305.933 246.702 313.651 243.69C321.386 240.672 329.555 234.38 337.329 223.019C338.681 221.043 341.396 220.528 343.381 221.869C345.366 223.211 345.891 225.916 344.539 227.892C336.006 240.361 326.548 247.967 316.837 251.756C307.108 255.553 297.474 255.381 288.871 252.885C280.314 250.402 272.765 245.624 266.971 240.137C261.224 234.694 256.914 228.273 255.204 222.261C254.55 219.96 255.908 217.561 258.214 216.914C260.524 216.265 262.94 217.601 263.595 219.905Z" fill="#233C62"/>
<path d="M405.231 428.676C404.874 438.933 366.469 445.8 319.449 444.014C272.429 442.228 234.601 432.466 234.957 422.209C235.313 411.953 273.719 405.086 320.739 406.871C367.758 408.657 405.587 418.419 405.231 428.676Z" fill="#FCCBC9"/>
<path d="M374.36 423.857C374.291 428.022 352.74 431.008 326.225 430.525C299.71 430.043 278.271 426.276 278.34 422.111C278.409 417.946 299.96 414.961 326.476 415.443C352.991 415.925 374.429 419.693 374.36 423.857Z" fill="#FCABA8"/>
<path d="M54.2267 135.665C56.3398 135.301 58.3482 136.716 58.7115 138.826C59.0743 140.934 57.6586 142.937 55.5482 143.301L18.9301 149.617C16.817 149.982 14.8086 148.566 14.4453 146.456C14.0825 144.349 15.4982 142.347 17.6087 141.983L54.2267 135.665ZM0.40201 94.5813C1.50399 92.0288 4.50882 90.9005 7.02213 92.0959L55.1002 114.966C57.483 116.1 58.5415 118.911 57.4966 121.331C56.3947 123.884 53.3898 125.012 50.8765 123.817L2.79848 100.946C0.415699 99.813 -0.642592 97.0012 0.40201 94.5813ZM34.3106 68.1135C36.1079 66.4903 38.8833 66.633 40.5042 68.4318L65.0529 95.674C66.6674 97.4657 66.5259 100.224 64.7359 101.841C62.9387 103.464 60.1623 103.322 58.5413 101.523L33.9927 74.2805C32.378 72.4887 32.5203 69.7305 34.3106 68.1135Z" fill="#769AC2"/>
</svg>
